{
	"asset":{
		"generator":"Khronos glTF Blender I/O v5.1.19",
		"version":"2.0"
	},
	"scene":0,
	"scenes":[
		{
			"name":"steampunk_barrel",
			"nodes":[
				0
			]
		}
	],
	"nodes":[
		{
			"mesh":0,
			"name":"SteampunkBarrel"
		}
	],
	"materials":[
		{
			"doubleSided":true,
			"name":"Material",
			"normalTexture":{
				"index":0
			},
			"pbrMetallicRoughness":{
				"baseColorTexture":{
					"index":1
				},
				"metallicRoughnessTexture":{
					"index":2
				}
			}
		}
	],
	"meshes":[
		{
			"name":"Sphere.005",
			"primitives":[
				{
					"attributes":{
						"POSITION":0,
						"NORMAL":1,
						"TEXCOORD_0":2
					},
					"indices":3,
					"material":0
				}
			]
		}
	],
	"textures":[
		{
			"sampler":0,
			"source":0
		},
		{
			"sampler":0,
			"source":1
		},
		{
			"sampler":0,
			"source":2
		}
	],
	"images":[
		{
			"mimeType":"image/png",
			"name":"DefaultMaterial_Normal.png",
			"uri":"../../../../textures/environment/artificial/steampunk_barrel/DefaultMaterial_Normal.png"
		},
		{
			"mimeType":"image/png",
			"name":"DefaultMaterial_BaseColor.png",
			"uri":"../../../../textures/environment/artificial/steampunk_barrel/DefaultMaterial_BaseColor.png"
		},
		{
			"mimeType":"image/png",
			"name":"DefaultMaterial_Roughness.png",
			"uri":"../../../../textures/environment/artificial/steampunk_barrel/DefaultMaterial_Roughness.png"
		}
	],
	"accessors":[
		{
			"bufferView":0,
			"componentType":5126,
			"count":2083,
			"max":[
				1.0338590145111084,
				1.6331195831298828,
				1
			],
			"min":[
				-1.0338574647903442,
				-1.2680323123931885,
				-0.9999999403953552
			],
			"type":"VEC3"
		},
		{
			"bufferView":1,
			"componentType":5126,
			"count":2083,
			"type":"VEC3"
		},
		{
			"bufferView":2,
			"componentType":5126,
			"count":2083,
			"type":"VEC2"
		},
		{
			"bufferView":3,
			"componentType":5123,
			"count":10044,
			"type":"SCALAR"
		}
	],
	"bufferViews":[
		{
			"buffer":0,
			"byteLength":24996,
			"byteOffset":0,
			"target":34962
		},
		{
			"buffer":0,
			"byteLength":24996,
			"byteOffset":24996,
			"target":34962
		},
		{
			"buffer":0,
			"byteLength":16664,
			"byteOffset":49992,
			"target":34962
		},
		{
			"buffer":0,
			"byteLength":20088,
			"byteOffset":66656,
			"target":34963
		}
	],
	"samplers":[
		{
			"magFilter":9729,
			"minFilter":9987
		}
	],
	"buffers":[
		{
			"byteLength":86744,
			"uri":"steampunk_barrel.bin"
		}
	]
}
