{
	"asset":{
		"generator":"Khronos glTF Blender I/O v5.1.19",
		"version":"2.0"
	},
	"scene":0,
	"scenes":[
		{
			"name":"truss_01",
			"nodes":[
				0
			]
		}
	],
	"nodes":[
		{
			"mesh":0,
			"name":"Truss01",
			"rotation":[
				-0.008412297815084457,
				-0.16652651131153107,
				0.049745671451091766,
				0.9847455024719238
			],
			"translation":[
				0.5515371561050415,
				-0.9418556690216064,
				0
			]
		}
	],
	"materials":[
		{
			"doubleSided":true,
			"name":"wireframe_bridge",
			"normalTexture":{
				"index":0
			},
			"pbrMetallicRoughness":{
				"baseColorTexture":{
					"index":1
				},
				"metallicRoughnessTexture":{
					"index":2
				}
			}
		}
	],
	"meshes":[
		{
			"name":"Plane.001",
			"primitives":[
				{
					"attributes":{
						"POSITION":0,
						"NORMAL":1,
						"TEXCOORD_0":2
					},
					"indices":3,
					"material":0
				}
			]
		}
	],
	"textures":[
		{
			"sampler":0,
			"source":0
		},
		{
			"sampler":0,
			"source":1
		},
		{
			"sampler":0,
			"source":2
		}
	],
	"images":[
		{
			"mimeType":"image/png",
			"name":"Wireframe Bridge Base_Normal.png",
			"uri":"../../../textures/maps/segmented_arena/Wireframe%20Bridge%20Base_Normal.png"
		},
		{
			"mimeType":"image/png",
			"name":"Wireframe Bridge Base_BaseColor.png",
			"uri":"../../../textures/maps/segmented_arena/Wireframe%20Bridge%20Base_BaseColor.png"
		},
		{
			"mimeType":"image/png",
			"name":"Wireframe Bridge Base_Roughness.png",
			"uri":"../../../textures/maps/segmented_arena/Wireframe%20Bridge%20Base_Roughness.png"
		}
	],
	"accessors":[
		{
			"bufferView":0,
			"componentType":5126,
			"count":1608,
			"max":[
				29.40055274963379,
				8.286331176757812,
				12.71831226348877
			],
			"min":[
				-30.936336517333984,
				-2.0428833961486816,
				-12.151997566223145
			],
			"type":"VEC3"
		},
		{
			"bufferView":1,
			"componentType":5126,
			"count":1608,
			"type":"VEC3"
		},
		{
			"bufferView":2,
			"componentType":5126,
			"count":1608,
			"type":"VEC2"
		},
		{
			"bufferView":3,
			"componentType":5123,
			"count":2412,
			"type":"SCALAR"
		}
	],
	"bufferViews":[
		{
			"buffer":0,
			"byteLength":19296,
			"byteOffset":0,
			"target":34962
		},
		{
			"buffer":0,
			"byteLength":19296,
			"byteOffset":19296,
			"target":34962
		},
		{
			"buffer":0,
			"byteLength":12864,
			"byteOffset":38592,
			"target":34962
		},
		{
			"buffer":0,
			"byteLength":4824,
			"byteOffset":51456,
			"target":34963
		}
	],
	"samplers":[
		{
			"magFilter":9729,
			"minFilter":9987
		}
	],
	"buffers":[
		{
			"byteLength":56280,
			"uri":"truss_01.bin"
		}
	]
}
