{
	"asset":{
		"generator":"Khronos glTF Blender I/O v5.1.19",
		"version":"2.0"
	},
	"scene":0,
	"scenes":[
		{
			"name":"rock_01",
			"nodes":[
				0
			]
		}
	],
	"nodes":[
		{
			"mesh":0,
			"name":"Rock01"
		}
	],
	"materials":[
		{
			"doubleSided":true,
			"name":"Rock01",
			"normalTexture":{
				"index":0
			},
			"pbrMetallicRoughness":{
				"baseColorTexture":{
					"index":1
				},
				"metallicRoughnessTexture":{
					"index":2
				}
			}
		}
	],
	"meshes":[
		{
			"name":"Cube.003",
			"primitives":[
				{
					"attributes":{
						"POSITION":0,
						"NORMAL":1,
						"TEXCOORD_0":2
					},
					"indices":3,
					"material":0
				}
			]
		}
	],
	"textures":[
		{
			"sampler":0,
			"source":0
		},
		{
			"sampler":0,
			"source":1
		},
		{
			"sampler":0,
			"source":2
		}
	],
	"images":[
		{
			"mimeType":"image/png",
			"name":"DefaultMaterial_Normal.png",
			"uri":"../../../../textures/environment/rocks/rock_1/DefaultMaterial_Normal.png"
		},
		{
			"mimeType":"image/png",
			"name":"DefaultMaterial_BaseColor.png",
			"uri":"../../../../textures/environment/rocks/rock_1/DefaultMaterial_BaseColor.png"
		},
		{
			"mimeType":"image/png",
			"name":"DefaultMaterial_Roughness.png",
			"uri":"../../../../textures/environment/rocks/rock_1/DefaultMaterial_Roughness.png"
		}
	],
	"accessors":[
		{
			"bufferView":0,
			"componentType":5126,
			"count":527,
			"max":[
				1.000001072883606,
				1.9886726140975952,
				1.0834943056106567
			],
			"min":[
				-1.0486899614334106,
				-0.0027865972369909286,
				-1.1402294635772705
			],
			"type":"VEC3"
		},
		{
			"bufferView":1,
			"componentType":5126,
			"count":527,
			"type":"VEC3"
		},
		{
			"bufferView":2,
			"componentType":5126,
			"count":527,
			"type":"VEC2"
		},
		{
			"bufferView":3,
			"componentType":5123,
			"count":2544,
			"type":"SCALAR"
		}
	],
	"bufferViews":[
		{
			"buffer":0,
			"byteLength":6324,
			"byteOffset":0,
			"target":34962
		},
		{
			"buffer":0,
			"byteLength":6324,
			"byteOffset":6324,
			"target":34962
		},
		{
			"buffer":0,
			"byteLength":4216,
			"byteOffset":12648,
			"target":34962
		},
		{
			"buffer":0,
			"byteLength":5088,
			"byteOffset":16864,
			"target":34963
		}
	],
	"samplers":[
		{
			"magFilter":9729,
			"minFilter":9987
		}
	],
	"buffers":[
		{
			"byteLength":21952,
			"uri":"rock_01.bin"
		}
	]
}
