{
	"asset":{
		"generator":"Khronos glTF Blender I/O v5.1.19",
		"version":"2.0"
	},
	"scene":0,
	"scenes":[
		{
			"name":"beam_01",
			"nodes":[
				0
			]
		}
	],
	"nodes":[
		{
			"mesh":0,
			"name":"Beam01"
		}
	],
	"materials":[
		{
			"name":"Beam01",
			"normalTexture":{
				"index":0
			},
			"pbrMetallicRoughness":{
				"baseColorTexture":{
					"index":1
				},
				"metallicRoughnessTexture":{
					"index":2
				}
			}
		}
	],
	"meshes":[
		{
			"name":"Beam",
			"primitives":[
				{
					"attributes":{
						"POSITION":0,
						"NORMAL":1,
						"TEXCOORD_0":2
					},
					"indices":3,
					"material":0
				}
			]
		}
	],
	"textures":[
		{
			"sampler":0,
			"source":0
		},
		{
			"sampler":0,
			"source":1
		},
		{
			"sampler":0,
			"source":2
		}
	],
	"images":[
		{
			"mimeType":"image/png",
			"name":"Beam01_Normal.png",
			"uri":"../../../textures/environment/beams/Beam01_Normal.png"
		},
		{
			"mimeType":"image/png",
			"name":"Beam01_BaseColor.png",
			"uri":"../../../textures/environment/beams/Beam01_BaseColor.png"
		},
		{
			"mimeType":"image/png",
			"name":"Beam01_Roughness.png",
			"uri":"../../../textures/environment/beams/Beam01_Roughness.png"
		}
	],
	"accessors":[
		{
			"bufferView":0,
			"componentType":5126,
			"count":366,
			"max":[
				0.5,
				0.40000003576278687,
				5
			],
			"min":[
				-0.5,
				-0.40000003576278687,
				-5
			],
			"type":"VEC3"
		},
		{
			"bufferView":1,
			"componentType":5126,
			"count":366,
			"type":"VEC3"
		},
		{
			"bufferView":2,
			"componentType":5126,
			"count":366,
			"type":"VEC2"
		},
		{
			"bufferView":3,
			"componentType":5123,
			"count":1140,
			"type":"SCALAR"
		}
	],
	"bufferViews":[
		{
			"buffer":0,
			"byteLength":4392,
			"byteOffset":0,
			"target":34962
		},
		{
			"buffer":0,
			"byteLength":4392,
			"byteOffset":4392,
			"target":34962
		},
		{
			"buffer":0,
			"byteLength":2928,
			"byteOffset":8784,
			"target":34962
		},
		{
			"buffer":0,
			"byteLength":2280,
			"byteOffset":11712,
			"target":34963
		}
	],
	"samplers":[
		{
			"magFilter":9729,
			"minFilter":9987
		}
	],
	"buffers":[
		{
			"byteLength":13992,
			"uri":"beam_01.bin"
		}
	]
}
