{
	"asset":{
		"generator":"Khronos glTF Blender I/O v5.1.19",
		"version":"2.0"
	},
	"scene":0,
	"scenes":[
		{
			"name":"pipe_01",
			"nodes":[
				0
			]
		}
	],
	"nodes":[
		{
			"mesh":0,
			"name":"Pipe01"
		}
	],
	"materials":[
		{
			"doubleSided":true,
			"name":"Pipe01",
			"normalTexture":{
				"index":0
			},
			"pbrMetallicRoughness":{
				"baseColorTexture":{
					"index":1
				},
				"metallicRoughnessTexture":{
					"index":2
				}
			}
		}
	],
	"meshes":[
		{
			"name":"Cube.001",
			"primitives":[
				{
					"attributes":{
						"POSITION":0,
						"NORMAL":1,
						"TEXCOORD_0":2
					},
					"indices":3,
					"material":0
				}
			]
		}
	],
	"textures":[
		{
			"sampler":0,
			"source":0
		},
		{
			"sampler":0,
			"source":1
		},
		{
			"sampler":0,
			"source":2
		}
	],
	"images":[
		{
			"mimeType":"image/png",
			"name":"Pipe01_Normal.png",
			"uri":"../../../textures/environment/pipes/pipe_01/Pipe01_Normal.png"
		},
		{
			"mimeType":"image/png",
			"name":"Pipe01_BaseColor.png",
			"uri":"../../../textures/environment/pipes/pipe_01/Pipe01_BaseColor.png"
		},
		{
			"mimeType":"image/png",
			"name":"Pipe01_Roughness.png",
			"uri":"../../../textures/environment/pipes/pipe_01/Pipe01_Roughness.png"
		}
	],
	"accessors":[
		{
			"bufferView":0,
			"componentType":5126,
			"count":1430,
			"max":[
				2.930950880050659,
				2.6042137145996094,
				5.284880638122559
			],
			"min":[
				-2.5981698036193848,
				-2.7654166221618652,
				-7.737423419952393
			],
			"type":"VEC3"
		},
		{
			"bufferView":1,
			"componentType":5126,
			"count":1430,
			"type":"VEC3"
		},
		{
			"bufferView":2,
			"componentType":5126,
			"count":1430,
			"type":"VEC2"
		},
		{
			"bufferView":3,
			"componentType":5123,
			"count":4896,
			"type":"SCALAR"
		}
	],
	"bufferViews":[
		{
			"buffer":0,
			"byteLength":17160,
			"byteOffset":0,
			"target":34962
		},
		{
			"buffer":0,
			"byteLength":17160,
			"byteOffset":17160,
			"target":34962
		},
		{
			"buffer":0,
			"byteLength":11440,
			"byteOffset":34320,
			"target":34962
		},
		{
			"buffer":0,
			"byteLength":9792,
			"byteOffset":45760,
			"target":34963
		}
	],
	"samplers":[
		{
			"magFilter":9729,
			"minFilter":9987
		}
	],
	"buffers":[
		{
			"byteLength":55552,
			"uri":"pipe_01.bin"
		}
	]
}
