{
	"asset":{
		"generator":"Khronos glTF Blender I/O v5.1.19",
		"version":"2.0"
	},
	"scene":0,
	"scenes":[
		{
			"name":"tunnel_01",
			"nodes":[
				0
			]
		}
	],
	"nodes":[
		{
			"mesh":0,
			"name":"Tunnel01",
			"translation":[
				0,
				4.114791393280029,
				0
			]
		}
	],
	"materials":[
		{
			"doubleSided":true,
			"name":"Tunnel01",
			"normalTexture":{
				"index":0
			},
			"pbrMetallicRoughness":{
				"baseColorTexture":{
					"index":1
				},
				"metallicRoughnessTexture":{
					"index":2
				}
			}
		}
	],
	"meshes":[
		{
			"name":"Plane",
			"primitives":[
				{
					"attributes":{
						"POSITION":0,
						"NORMAL":1,
						"TEXCOORD_0":2
					},
					"indices":3,
					"material":0
				}
			]
		}
	],
	"textures":[
		{
			"sampler":0,
			"source":0
		},
		{
			"sampler":0,
			"source":1
		},
		{
			"sampler":0,
			"source":2
		}
	],
	"images":[
		{
			"mimeType":"image/png",
			"name":"Tunnel01_Normal.png",
			"uri":"../../../textures/environment/tunnels/tunnel_01/Tunnel01_Normal.png"
		},
		{
			"mimeType":"image/png",
			"name":"Tunnel01_BaseColor.png",
			"uri":"../../../textures/environment/tunnels/tunnel_01/Tunnel01_BaseColor.png"
		},
		{
			"mimeType":"image/png",
			"name":"Tunnel01_Roughness.png",
			"uri":"../../../textures/environment/tunnels/tunnel_01/Tunnel01_Roughness.png"
		}
	],
	"accessors":[
		{
			"bufferView":0,
			"componentType":5126,
			"count":535,
			"max":[
				12.9660062789917,
				17.167327880859375,
				15.611625671386719
			],
			"min":[
				-13.4766845703125,
				-8.01461410522461,
				-11.29179859161377
			],
			"type":"VEC3"
		},
		{
			"bufferView":1,
			"componentType":5126,
			"count":535,
			"type":"VEC3"
		},
		{
			"bufferView":2,
			"componentType":5126,
			"count":535,
			"type":"VEC2"
		},
		{
			"bufferView":3,
			"componentType":5123,
			"count":2712,
			"type":"SCALAR"
		}
	],
	"bufferViews":[
		{
			"buffer":0,
			"byteLength":6420,
			"byteOffset":0,
			"target":34962
		},
		{
			"buffer":0,
			"byteLength":6420,
			"byteOffset":6420,
			"target":34962
		},
		{
			"buffer":0,
			"byteLength":4280,
			"byteOffset":12840,
			"target":34962
		},
		{
			"buffer":0,
			"byteLength":5424,
			"byteOffset":17120,
			"target":34963
		}
	],
	"samplers":[
		{
			"magFilter":9729,
			"minFilter":9987
		}
	],
	"buffers":[
		{
			"byteLength":22544,
			"uri":"tunnel_01.bin"
		}
	]
}
