{
	"asset":{
		"generator":"Khronos glTF Blender I/O v5.1.19",
		"version":"2.0"
	},
	"scene":0,
	"scenes":[
		{
			"name":"map_01",
			"nodes":[
				0,
				1,
				2,
				3,
				4,
				5,
				6,
				7
			]
		}
	],
	"nodes":[
		{
			"mesh":0,
			"name":"Cylinder",
			"translation":[
				15.223902702331543,
				2.276122570037842,
				21.601160049438477
			]
		},
		{
			"mesh":1,
			"name":"Plane.014",
			"translation":[
				18.28390884399414,
				2.3750340938568115,
				2.346440076828003
			]
		},
		{
			"mesh":2,
			"name":"Plane.018",
			"rotation":[
				0,
				-0.561034083366394,
				0,
				0.8277927041053772
			],
			"translation":[
				20.630456924438477,
				5.348358154296875,
				-22.793386459350586
			]
		},
		{
			"mesh":3,
			"name":"Plane.019",
			"translation":[
				-6.319061279296875,
				2.6299567222595215,
				20.791749954223633
			]
		},
		{
			"mesh":4,
			"name":"Plane.021",
			"translation":[
				-17.587495803833008,
				3.100130081176758,
				10.705232620239258
			]
		},
		{
			"mesh":5,
			"name":"Plane.022",
			"translation":[
				-19.15192222595215,
				3.695519208908081,
				-0.017608702182769775
			]
		},
		{
			"mesh":6,
			"name":"Plane.025",
			"translation":[
				-6.766148090362549,
				1.61427903175354,
				-17.216020584106445
			]
		},
		{
			"mesh":7,
			"name":"Plane.026",
			"translation":[
				-21.21647834777832,
				4.187212944030762,
				16.48163604736328
			]
		}
	],
	"materials":[
		{
			"doubleSided":true,
			"name":"Mountain Major",
			"normalTexture":{
				"index":0
			},
			"pbrMetallicRoughness":{
				"baseColorTexture":{
					"index":1
				},
				"metallicFactor":0,
				"metallicRoughnessTexture":{
					"index":2
				}
			}
		},
		{
			"doubleSided":true,
			"name":"Hills 2",
			"normalTexture":{
				"index":3
			},
			"pbrMetallicRoughness":{
				"baseColorTexture":{
					"index":4
				},
				"metallicFactor":0,
				"metallicRoughnessTexture":{
					"index":5
				}
			}
		},
		{
			"doubleSided":true,
			"name":"Hills 1",
			"normalTexture":{
				"index":6
			},
			"pbrMetallicRoughness":{
				"baseColorTexture":{
					"index":7
				},
				"metallicFactor":0,
				"metallicRoughnessTexture":{
					"index":8
				}
			}
		}
	],
	"meshes":[
		{
			"name":"Cylinder.001",
			"primitives":[
				{
					"attributes":{
						"POSITION":0,
						"NORMAL":1,
						"TEXCOORD_0":2
					},
					"indices":3,
					"material":0
				}
			]
		},
		{
			"name":"Plane.016",
			"primitives":[
				{
					"attributes":{
						"POSITION":4,
						"NORMAL":5,
						"TEXCOORD_0":6
					},
					"indices":7,
					"material":1
				}
			]
		},
		{
			"name":"Plane.019",
			"primitives":[
				{
					"attributes":{
						"POSITION":8,
						"NORMAL":9,
						"TEXCOORD_0":10
					},
					"indices":11,
					"material":1
				}
			]
		},
		{
			"name":"Plane.020",
			"primitives":[
				{
					"attributes":{
						"POSITION":12,
						"NORMAL":13,
						"TEXCOORD_0":14
					},
					"indices":15,
					"material":2
				}
			]
		},
		{
			"name":"Plane.022",
			"primitives":[
				{
					"attributes":{
						"POSITION":16,
						"NORMAL":17,
						"TEXCOORD_0":18
					},
					"indices":19,
					"material":2
				}
			]
		},
		{
			"name":"Plane.023",
			"primitives":[
				{
					"attributes":{
						"POSITION":20,
						"NORMAL":21,
						"TEXCOORD_0":22
					},
					"indices":23,
					"material":2
				}
			]
		},
		{
			"name":"Plane.026",
			"primitives":[
				{
					"attributes":{
						"POSITION":24,
						"NORMAL":25,
						"TEXCOORD_0":26
					},
					"indices":27,
					"material":1
				}
			]
		},
		{
			"name":"Plane.027",
			"primitives":[
				{
					"attributes":{
						"POSITION":28,
						"NORMAL":29,
						"TEXCOORD_0":30
					},
					"indices":31,
					"material":2
				}
			]
		}
	],
	"textures":[
		{
			"sampler":0,
			"source":0
		},
		{
			"sampler":0,
			"source":1
		},
		{
			"sampler":0,
			"source":2
		},
		{
			"sampler":0,
			"source":3
		},
		{
			"sampler":0,
			"source":4
		},
		{
			"sampler":0,
			"source":5
		},
		{
			"sampler":0,
			"source":6
		},
		{
			"sampler":0,
			"source":7
		},
		{
			"sampler":0,
			"source":8
		}
	],
	"images":[
		{
			"mimeType":"image/png",
			"name":"Mountain Major_Normal.png",
			"uri":"../../textures/maps/map_01/Mountain%20Major_Normal.png"
		},
		{
			"mimeType":"image/png",
			"name":"Mountain Major_BaseColor.png",
			"uri":"../../textures/maps/map_01/Mountain%20Major_BaseColor.png"
		},
		{
			"mimeType":"image/png",
			"name":"Mountain Major_Roughness.png",
			"uri":"../../textures/maps/map_01/Mountain%20Major_Roughness.png"
		},
		{
			"mimeType":"image/png",
			"name":"Hills 2_Normal.png",
			"uri":"../../textures/maps/map_01/Hills%202_Normal.png"
		},
		{
			"mimeType":"image/png",
			"name":"Hills 2_BaseColor.png",
			"uri":"../../textures/maps/map_01/Hills%202_BaseColor.png"
		},
		{
			"mimeType":"image/png",
			"name":"Hills 2_Roughness.png",
			"uri":"../../textures/maps/map_01/Hills%202_Roughness.png"
		},
		{
			"mimeType":"image/png",
			"name":"Hills 1_Normal.png",
			"uri":"../../textures/maps/map_01/Hills%201_Normal.png"
		},
		{
			"mimeType":"image/png",
			"name":"Hills 1_BaseColor.png",
			"uri":"../../textures/maps/map_01/Hills%201_BaseColor.png"
		},
		{
			"mimeType":"image/png",
			"name":"Hills 1_Roughness.png",
			"uri":"../../textures/maps/map_01/Hills%201_Roughness.png"
		}
	],
	"accessors":[
		{
			"bufferView":0,
			"componentType":5126,
			"count":308,
			"max":[
				9.410527229309082,
				8.20631217956543,
				7.123435020446777
			],
			"min":[
				-10.990677833557129,
				-9.092041969299316,
				-9.272216796875
			],
			"type":"VEC3"
		},
		{
			"bufferView":1,
			"componentType":5126,
			"count":308,
			"type":"VEC3"
		},
		{
			"bufferView":2,
			"componentType":5126,
			"count":308,
			"type":"VEC2"
		},
		{
			"bufferView":3,
			"componentType":5123,
			"count":870,
			"type":"SCALAR"
		},
		{
			"bufferView":4,
			"componentType":5126,
			"count":346,
			"max":[
				5.32511568069458,
				1.5308791399002075,
				10.32530689239502
			],
			"min":[
				-6.898471355438232,
				-4.453847408294678,
				-10.568367958068848
			],
			"type":"VEC3"
		},
		{
			"bufferView":5,
			"componentType":5126,
			"count":346,
			"type":"VEC3"
		},
		{
			"bufferView":6,
			"componentType":5126,
			"count":346,
			"type":"VEC2"
		},
		{
			"bufferView":7,
			"componentType":5123,
			"count":1266,
			"type":"SCALAR"
		},
		{
			"bufferView":8,
			"componentType":5126,
			"count":123,
			"max":[
				13.219181060791016,
				0.45278477668762207,
				10.93550968170166
			],
			"min":[
				-10.79614543914795,
				-7.66342830657959,
				-5.43501615524292
			],
			"type":"VEC3"
		},
		{
			"bufferView":9,
			"componentType":5126,
			"count":123,
			"type":"VEC3"
		},
		{
			"bufferView":10,
			"componentType":5126,
			"count":123,
			"type":"VEC2"
		},
		{
			"bufferView":11,
			"componentType":5123,
			"count":372,
			"type":"SCALAR"
		},
		{
			"bufferView":12,
			"componentType":5126,
			"count":100,
			"max":[
				10.39682674407959,
				2.063375949859619,
				3.295091390609741
			],
			"min":[
				-12.9233980178833,
				-5.0937323570251465,
				-5.593811988830566
			],
			"type":"VEC3"
		},
		{
			"bufferView":13,
			"componentType":5126,
			"count":100,
			"type":"VEC3"
		},
		{
			"bufferView":14,
			"componentType":5126,
			"count":100,
			"type":"VEC2"
		},
		{
			"bufferView":15,
			"componentType":5123,
			"count":294,
			"type":"SCALAR"
		},
		{
			"bufferView":16,
			"componentType":5126,
			"count":144,
			"max":[
				4.01857852935791,
				0.230914905667305,
				4.667919158935547
			],
			"min":[
				-5.813008785247803,
				-5.417230129241943,
				-4.0806989669799805
			],
			"type":"VEC3"
		},
		{
			"bufferView":17,
			"componentType":5126,
			"count":144,
			"type":"VEC3"
		},
		{
			"bufferView":18,
			"componentType":5126,
			"count":144,
			"type":"VEC2"
		},
		{
			"bufferView":19,
			"componentType":5123,
			"count":402,
			"type":"SCALAR"
		},
		{
			"bufferView":20,
			"componentType":5126,
			"count":227,
			"max":[
				5.658004283905029,
				0.16465391218662262,
				8.154229164123535
			],
			"min":[
				-7.071296691894531,
				-6.600038528442383,
				-9.151308059692383
			],
			"type":"VEC3"
		},
		{
			"bufferView":21,
			"componentType":5126,
			"count":227,
			"type":"VEC3"
		},
		{
			"bufferView":22,
			"componentType":5126,
			"count":227,
			"type":"VEC2"
		},
		{
			"bufferView":23,
			"componentType":5123,
			"count":774,
			"type":"SCALAR"
		},
		{
			"bufferView":24,
			"componentType":5126,
			"count":184,
			"max":[
				3.5599775314331055,
				1.9864771366119385,
				4.224289894104004
			],
			"min":[
				-6.154217720031738,
				-3.8035058975219727,
				-4.245913982391357
			],
			"type":"VEC3"
		},
		{
			"bufferView":25,
			"componentType":5126,
			"count":184,
			"type":"VEC3"
		},
		{
			"bufferView":26,
			"componentType":5126,
			"count":184,
			"type":"VEC2"
		},
		{
			"bufferView":27,
			"componentType":5123,
			"count":660,
			"type":"SCALAR"
		},
		{
			"bufferView":28,
			"componentType":5126,
			"count":170,
			"max":[
				3.571974515914917,
				0.37956321239471436,
				3.7979321479797363
			],
			"min":[
				-3.2799675464630127,
				-6.341033935546875,
				-3.992050886154175
			],
			"type":"VEC3"
		},
		{
			"bufferView":29,
			"componentType":5126,
			"count":170,
			"type":"VEC3"
		},
		{
			"bufferView":30,
			"componentType":5126,
			"count":170,
			"type":"VEC2"
		},
		{
			"bufferView":31,
			"componentType":5123,
			"count":570,
			"type":"SCALAR"
		}
	],
	"bufferViews":[
		{
			"buffer":0,
			"byteLength":3696,
			"byteOffset":0,
			"target":34962
		},
		{
			"buffer":0,
			"byteLength":3696,
			"byteOffset":3696,
			"target":34962
		},
		{
			"buffer":0,
			"byteLength":2464,
			"byteOffset":7392,
			"target":34962
		},
		{
			"buffer":0,
			"byteLength":1740,
			"byteOffset":9856,
			"target":34963
		},
		{
			"buffer":0,
			"byteLength":4152,
			"byteOffset":11596,
			"target":34962
		},
		{
			"buffer":0,
			"byteLength":4152,
			"byteOffset":15748,
			"target":34962
		},
		{
			"buffer":0,
			"byteLength":2768,
			"byteOffset":19900,
			"target":34962
		},
		{
			"buffer":0,
			"byteLength":2532,
			"byteOffset":22668,
			"target":34963
		},
		{
			"buffer":0,
			"byteLength":1476,
			"byteOffset":25200,
			"target":34962
		},
		{
			"buffer":0,
			"byteLength":1476,
			"byteOffset":26676,
			"target":34962
		},
		{
			"buffer":0,
			"byteLength":984,
			"byteOffset":28152,
			"target":34962
		},
		{
			"buffer":0,
			"byteLength":744,
			"byteOffset":29136,
			"target":34963
		},
		{
			"buffer":0,
			"byteLength":1200,
			"byteOffset":29880,
			"target":34962
		},
		{
			"buffer":0,
			"byteLength":1200,
			"byteOffset":31080,
			"target":34962
		},
		{
			"buffer":0,
			"byteLength":800,
			"byteOffset":32280,
			"target":34962
		},
		{
			"buffer":0,
			"byteLength":588,
			"byteOffset":33080,
			"target":34963
		},
		{
			"buffer":0,
			"byteLength":1728,
			"byteOffset":33668,
			"target":34962
		},
		{
			"buffer":0,
			"byteLength":1728,
			"byteOffset":35396,
			"target":34962
		},
		{
			"buffer":0,
			"byteLength":1152,
			"byteOffset":37124,
			"target":34962
		},
		{
			"buffer":0,
			"byteLength":804,
			"byteOffset":38276,
			"target":34963
		},
		{
			"buffer":0,
			"byteLength":2724,
			"byteOffset":39080,
			"target":34962
		},
		{
			"buffer":0,
			"byteLength":2724,
			"byteOffset":41804,
			"target":34962
		},
		{
			"buffer":0,
			"byteLength":1816,
			"byteOffset":44528,
			"target":34962
		},
		{
			"buffer":0,
			"byteLength":1548,
			"byteOffset":46344,
			"target":34963
		},
		{
			"buffer":0,
			"byteLength":2208,
			"byteOffset":47892,
			"target":34962
		},
		{
			"buffer":0,
			"byteLength":2208,
			"byteOffset":50100,
			"target":34962
		},
		{
			"buffer":0,
			"byteLength":1472,
			"byteOffset":52308,
			"target":34962
		},
		{
			"buffer":0,
			"byteLength":1320,
			"byteOffset":53780,
			"target":34963
		},
		{
			"buffer":0,
			"byteLength":2040,
			"byteOffset":55100,
			"target":34962
		},
		{
			"buffer":0,
			"byteLength":2040,
			"byteOffset":57140,
			"target":34962
		},
		{
			"buffer":0,
			"byteLength":1360,
			"byteOffset":59180,
			"target":34962
		},
		{
			"buffer":0,
			"byteLength":1140,
			"byteOffset":60540,
			"target":34963
		}
	],
	"samplers":[
		{
			"magFilter":9729,
			"minFilter":9987
		}
	],
	"buffers":[
		{
			"byteLength":61680,
			"uri":"map_01.bin"
		}
	]
}
