{
	"asset":{
		"generator":"Khronos glTF Blender I/O v5.2.39",
		"version":"2.0"
	},
	"scene":0,
	"scenes":[
		{
			"name":"seashore",
			"nodes":[
				0,
				1,
				2,
				3,
				4,
				5,
				6,
				7,
				8,
				9,
				10,
				11,
				12,
				13,
				14,
				15,
				16
			]
		}
	],
	"nodes":[
		{
			"mesh":0,
			"name":"background_buildings_01",
			"rotation":[
				0.7071068286895752,
				0,
				0,
				0.7071068286895752
			],
			"scale":[
				49.26470184326172,
				49.26470184326172,
				49.26470184326172
			],
			"translation":[
				-6.6278395652771,
				18.432788848876953,
				-49.38876724243164
			]
		},
		{
			"mesh":1,
			"name":"background_buildings_01.001",
			"rotation":[
				0,
				-0.7071068286895752,
				0.7071068286895752,
				5.338508302088485e-08
			],
			"scale":[
				22.88088607788086,
				22.88088607788086,
				22.88088607788086
			],
			"translation":[
				-3.4248979091644287,
				4.84238338470459,
				-27.046215057373047
			]
		},
		{
			"camera":0,
			"name":"Camera",
			"rotation":[
				0.045344602316617966,
				0.03935105353593826,
				-0.001787585555575788,
				0.9981944561004639
			],
			"translation":[
				0.3442424535751343,
				1.8058998584747314,
				10.379634857177734
			]
		},
		{
			"mesh":2,
			"name":"Circle.003",
			"translation":[
				2.087489128112793,
				-0.06363224983215332,
				-12.024786949157715
			]
		},
		{
			"mesh":3,
			"name":"Cube.001",
			"translation":[
				-7.786586761474609,
				3.435703754425049,
				3.1983022689819336
			]
		},
		{
			"mesh":4,
			"name":"Cube.002",
			"translation":[
				8.698508262634277,
				2.674293041229248,
				4.0583977699279785
			]
		},
		{
			"mesh":5,
			"name":"Cube.004",
			"translation":[
				4.1003570556640625,
				2.4553537368774414,
				-11.874765396118164
			]
		},
		{
			"mesh":6,
			"name":"Cube.005",
			"translation":[
				8.315343856811523,
				4.212467193603516,
				-0.5960994958877563
			]
		},
		{
			"mesh":7,
			"name":"Cube.014",
			"translation":[
				6,
				-3,
				3
			]
		},
		{
			"mesh":8,
			"name":"Cube.015",
			"translation":[
				3,
				-3,
				3
			]
		},
		{
			"mesh":9,
			"name":"Cube.016",
			"translation":[
				-1.1086931228637695,
				4.6800127029418945,
				16.535560607910156
			]
		},
		{
			"name":"Empty.001",
			"scale":[
				6.204100608825684,
				6.204100608825684,
				6.204100608825684
			],
			"translation":[
				0.9047636985778809,
				13.493986129760742,
				-14.209800720214844
			]
		},
		{
			"mesh":10,
			"name":"Gear.003",
			"rotation":[
				0,
				0.41469332575798035,
				0,
				0.9099612832069397
			],
			"translation":[
				-8.399999618530273,
				6.530126571655273,
				-0.46271347999572754
			]
		},
		{
			"mesh":11,
			"name":"Gear.005",
			"rotation":[
				0,
				-0.6819983124732971,
				0,
				0.7313538193702698
			],
			"translation":[
				4.964170932769775,
				4.057308197021484,
				-8.708902359008789
			]
		},
		{
			"mesh":12,
			"name":"Ground",
			"scale":[
				20,
				20,
				20
			],
			"translation":[
				0,
				-1,
				0
			]
		},
		{
			"name":"LineArt",
			"translation":[
				-5.565443992614746,
				0.4577155113220215,
				-12.586838722229004
			]
		},
		{
			"mesh":13,
			"name":"RoofPanel01.001",
			"rotation":[
				0.27331072092056274,
				0,
				0,
				0.9619258642196655
			],
			"translation":[
				-7.773245811462402,
				5.133519172668457,
				6.383574485778809
			]
		}
	],
	"cameras":[
		{
			"name":"Camera",
			"perspective":{
				"aspectRatio":2,
				"yfov":1.0247789450074924,
				"zfar":100,
				"znear":0.10000000149011612
			},
			"type":"perspective"
		}
	],
	"animations":[
		{
			"channels":[
				{
					"sampler":0,
					"target":{
						"node":2,
						"path":"translation"
					}
				},
				{
					"sampler":1,
					"target":{
						"node":2,
						"path":"rotation"
					}
				}
			],
			"name":"CameraAction",
			"samplers":[
				{
					"input":49,
					"interpolation":"LINEAR",
					"output":50
				},
				{
					"input":49,
					"interpolation":"LINEAR",
					"output":51
				}
			]
		}
	],
	"materials":[
		{
			"alphaMode":"BLEND",
			"doubleSided":true,
			"name":"background_buildings_01",
			"pbrMetallicRoughness":{
				"baseColorTexture":{
					"index":0
				},
				"metallicFactor":0
			}
		},
		{
			"doubleSided":true,
			"name":"Rainbow Metal ",
			"pbrMetallicRoughness":{
				"baseColorFactor":[
					0.2599938213825226,
					0.24228768050670624,
					0.216650128364563,
					1
				],
				"roughnessFactor":0.30000001192092896
			}
		},
		{
			"doubleSided":true,
			"name":"Bumpy Metal",
			"pbrMetallicRoughness":{
				"baseColorFactor":[
					0.8004660606384277,
					0.3514302372932434,
					0.15905949473381042,
					1
				],
				"roughnessFactor":0.20000000298023224
			}
		},
		{
			"doubleSided":true,
			"name":"Pipes",
			"pbrMetallicRoughness":{
				"baseColorFactor":[
					0.8004660606384277,
					0.3514302372932434,
					0.15905949473381042,
					1
				],
				"roughnessFactor":0.4000000059604645
			}
		},
		{
			"doubleSided":true,
			"name":"Ground",
			"pbrMetallicRoughness":{
				"baseColorFactor":[
					0.09994085133075714,
					0.042938511818647385,
					0.02308868244290352,
					1
				],
				"metallicFactor":0,
				"roughnessFactor":0.800000011920929
			}
		},
		{
			"doubleSided":true,
			"name":"Roof Panel 01",
			"pbrMetallicRoughness":{
				"baseColorFactor":[
					0.8004660606384277,
					0.3514302372932434,
					0.15905949473381042,
					1
				],
				"roughnessFactor":0.20000000298023224
			}
		}
	],
	"meshes":[
		{
			"name":"background_buildings_01",
			"primitives":[
				{
					"attributes":{
						"POSITION":0,
						"NORMAL":1,
						"TEXCOORD_0":2
					},
					"indices":3,
					"material":0
				}
			]
		},
		{
			"name":"background_buildings_01.001",
			"primitives":[
				{
					"attributes":{
						"POSITION":4,
						"NORMAL":5,
						"TEXCOORD_0":6
					},
					"indices":3,
					"material":0
				}
			]
		},
		{
			"name":"Circle.003",
			"primitives":[
				{
					"attributes":{
						"POSITION":7,
						"NORMAL":8,
						"TEXCOORD_0":9
					},
					"indices":10,
					"material":1
				}
			]
		},
		{
			"name":"Cube.002",
			"primitives":[
				{
					"attributes":{
						"POSITION":11,
						"NORMAL":12,
						"TEXCOORD_0":13
					},
					"indices":14,
					"material":2
				}
			]
		},
		{
			"name":"Cube.003",
			"primitives":[
				{
					"attributes":{
						"POSITION":15,
						"NORMAL":16,
						"TEXCOORD_0":17
					},
					"indices":18,
					"material":3
				}
			]
		},
		{
			"name":"Cube.005",
			"primitives":[
				{
					"attributes":{
						"POSITION":19,
						"NORMAL":20,
						"TEXCOORD_0":21
					},
					"indices":22,
					"material":2
				}
			]
		},
		{
			"name":"Cube.006",
			"primitives":[
				{
					"attributes":{
						"POSITION":23,
						"NORMAL":24,
						"TEXCOORD_0":25
					},
					"indices":18,
					"material":2
				}
			]
		},
		{
			"name":"Mesh",
			"primitives":[
				{
					"attributes":{
						"POSITION":26,
						"NORMAL":27
					},
					"indices":28,
					"material":3
				}
			]
		},
		{
			"name":"Mesh",
			"primitives":[
				{
					"attributes":{
						"POSITION":29,
						"NORMAL":30
					},
					"indices":31,
					"material":3
				}
			]
		},
		{
			"name":"Cube.001",
			"primitives":[
				{
					"attributes":{
						"POSITION":32,
						"NORMAL":33,
						"TEXCOORD_0":34
					},
					"indices":35,
					"material":3
				}
			]
		},
		{
			"name":"Gear.003",
			"primitives":[
				{
					"attributes":{
						"POSITION":36,
						"NORMAL":37
					},
					"indices":38,
					"material":1
				}
			]
		},
		{
			"name":"Gear.005",
			"primitives":[
				{
					"attributes":{
						"POSITION":39,
						"NORMAL":40
					},
					"indices":38,
					"material":1
				}
			]
		},
		{
			"name":"Plane.001",
			"primitives":[
				{
					"attributes":{
						"POSITION":41,
						"NORMAL":42,
						"TEXCOORD_0":43
					},
					"indices":44,
					"material":4
				}
			]
		},
		{
			"name":"Plane.008",
			"primitives":[
				{
					"attributes":{
						"POSITION":45,
						"NORMAL":46,
						"TEXCOORD_0":47
					},
					"indices":48,
					"material":5
				}
			]
		}
	],
	"textures":[
		{
			"sampler":0,
			"source":0
		}
	],
	"images":[
		{
			"mimeType":"image/png",
			"name":"background_buildings_01.png",
			"uri":"../../textures/billboards/background_buildings_01.png"
		}
	],
	"accessors":[
		{
			"bufferView":0,
			"componentType":5126,
			"count":4,
			"max":[
				0.5,
				0,
				0.5
			],
			"min":[
				-0.5,
				0,
				-0.5
			],
			"type":"VEC3"
		},
		{
			"bufferView":1,
			"componentType":5126,
			"count":4,
			"type":"VEC3"
		},
		{
			"bufferView":2,
			"componentType":5126,
			"count":4,
			"type":"VEC2"
		},
		{
			"bufferView":3,
			"componentType":5123,
			"count":6,
			"type":"SCALAR"
		},
		{
			"bufferView":4,
			"componentType":5126,
			"count":4,
			"max":[
				0.5,
				0,
				0.5
			],
			"min":[
				-0.5,
				0,
				-0.5
			],
			"type":"VEC3"
		},
		{
			"bufferView":5,
			"componentType":5126,
			"count":4,
			"type":"VEC3"
		},
		{
			"bufferView":6,
			"componentType":5126,
			"count":4,
			"type":"VEC2"
		},
		{
			"bufferView":7,
			"componentType":5126,
			"count":1284,
			"max":[
				1.1781728267669678,
				5.7588701248168945,
				1.290809154510498
			],
			"min":[
				-1.592139720916748,
				0.0005059585091657937,
				-1.2920821905136108
			],
			"type":"VEC3"
		},
		{
			"bufferView":8,
			"componentType":5126,
			"count":1284,
			"type":"VEC3"
		},
		{
			"bufferView":9,
			"componentType":5126,
			"count":1284,
			"type":"VEC2"
		},
		{
			"bufferView":10,
			"componentType":5123,
			"count":5376,
			"type":"SCALAR"
		},
		{
			"bufferView":11,
			"componentType":5126,
			"count":241,
			"max":[
				1.2518622875213623,
				2.435703754425049,
				4.982451438903809
			],
			"min":[
				-1.2518622875213623,
				-3.435703754425049,
				-4.982451438903809
			],
			"type":"VEC3"
		},
		{
			"bufferView":12,
			"componentType":5126,
			"count":241,
			"type":"VEC3"
		},
		{
			"bufferView":13,
			"componentType":5126,
			"count":241,
			"type":"VEC2"
		},
		{
			"bufferView":14,
			"componentType":5123,
			"count":1008,
			"type":"SCALAR"
		},
		{
			"bufferView":15,
			"componentType":5126,
			"count":24,
			"max":[
				1.8072021007537842,
				2.674293041229248,
				3.477163791656494
			],
			"min":[
				-1.8072021007537842,
				-2.674293041229248,
				-3.477163791656494
			],
			"type":"VEC3"
		},
		{
			"bufferView":16,
			"componentType":5126,
			"count":24,
			"type":"VEC3"
		},
		{
			"bufferView":17,
			"componentType":5126,
			"count":24,
			"type":"VEC2"
		},
		{
			"bufferView":18,
			"componentType":5123,
			"count":36,
			"type":"SCALAR"
		},
		{
			"bufferView":19,
			"componentType":5126,
			"count":160,
			"max":[
				2.436295509338379,
				0.43360471725463867,
				7.7406907081604
			],
			"min":[
				-2.436295509338379,
				-5.455351829528809,
				-7.7406907081604
			],
			"type":"VEC3"
		},
		{
			"bufferView":20,
			"componentType":5126,
			"count":160,
			"type":"VEC3"
		},
		{
			"bufferView":21,
			"componentType":5126,
			"count":160,
			"type":"VEC2"
		},
		{
			"bufferView":22,
			"componentType":5123,
			"count":252,
			"type":"SCALAR"
		},
		{
			"bufferView":23,
			"componentType":5126,
			"count":24,
			"max":[
				2.0766654014587402,
				4.212467193603516,
				0.8339539766311646
			],
			"min":[
				-2.0766654014587402,
				-4.212467193603516,
				-0.8339539766311646
			],
			"type":"VEC3"
		},
		{
			"bufferView":24,
			"componentType":5126,
			"count":24,
			"type":"VEC3"
		},
		{
			"bufferView":25,
			"componentType":5126,
			"count":24,
			"type":"VEC2"
		},
		{
			"bufferView":26,
			"componentType":5126,
			"count":2432,
			"max":[
				3.6923882961273193,
				11.692388534545898,
				0.6923879981040955
			],
			"min":[
				-3.692394733428955,
				0,
				-8.692390441894531
			],
			"type":"VEC3"
		},
		{
			"bufferView":27,
			"componentType":5126,
			"count":2432,
			"type":"VEC3"
		},
		{
			"bufferView":28,
			"componentType":5123,
			"count":10368,
			"type":"SCALAR"
		},
		{
			"bufferView":29,
			"componentType":5126,
			"count":1800,
			"max":[
				7.384775638580322,
				12.384777069091797,
				4.384775638580322
			],
			"min":[
				-12.38477611541748,
				0.10097535699605942,
				-7.384775638580322
			],
			"type":"VEC3"
		},
		{
			"bufferView":30,
			"componentType":5126,
			"count":1800,
			"type":"VEC3"
		},
		{
			"bufferView":31,
			"componentType":5123,
			"count":6432,
			"type":"SCALAR"
		},
		{
			"bufferView":32,
			"componentType":5126,
			"count":100,
			"max":[
				11.61440372467041,
				2.6685733795166016,
				4.76837158203125e-07
			],
			"min":[
				-11.61440372467041,
				-4.6800127029418945,
				-4.95432710647583
			],
			"type":"VEC3"
		},
		{
			"bufferView":33,
			"componentType":5126,
			"count":100,
			"type":"VEC3"
		},
		{
			"bufferView":34,
			"componentType":5126,
			"count":100,
			"type":"VEC2"
		},
		{
			"bufferView":35,
			"componentType":5123,
			"count":252,
			"type":"SCALAR"
		},
		{
			"bufferView":36,
			"componentType":5126,
			"count":1680,
			"max":[
				3.2420005798339844,
				0.5,
				3.2420005798339844
			],
			"min":[
				-3.2420005798339844,
				-0.5,
				-3.2420005798339844
			],
			"type":"VEC3"
		},
		{
			"bufferView":37,
			"componentType":5126,
			"count":1680,
			"type":"VEC3"
		},
		{
			"bufferView":38,
			"componentType":5123,
			"count":3456,
			"type":"SCALAR"
		},
		{
			"bufferView":39,
			"componentType":5126,
			"count":1680,
			"max":[
				3.2420005798339844,
				0.5,
				3.2420005798339844
			],
			"min":[
				-3.2420005798339844,
				-0.5,
				-3.2420005798339844
			],
			"type":"VEC3"
		},
		{
			"bufferView":40,
			"componentType":5126,
			"count":1680,
			"type":"VEC3"
		},
		{
			"bufferView":41,
			"componentType":5126,
			"count":24,
			"max":[
				1,
				0,
				1
			],
			"min":[
				-1,
				-0.10000000149011612,
				-1
			],
			"type":"VEC3"
		},
		{
			"bufferView":42,
			"componentType":5126,
			"count":24,
			"type":"VEC3"
		},
		{
			"bufferView":43,
			"componentType":5126,
			"count":24,
			"type":"VEC2"
		},
		{
			"bufferView":44,
			"componentType":5123,
			"count":36,
			"type":"SCALAR"
		},
		{
			"bufferView":45,
			"componentType":5126,
			"count":40,
			"max":[
				2.0643961429595947,
				0.30000001192092896,
				3.6645798683166504
			],
			"min":[
				-2.0643961429595947,
				0,
				-3.6645798683166504
			],
			"type":"VEC3"
		},
		{
			"bufferView":46,
			"componentType":5126,
			"count":40,
			"type":"VEC3"
		},
		{
			"bufferView":47,
			"componentType":5126,
			"count":40,
			"type":"VEC2"
		},
		{
			"bufferView":48,
			"componentType":5123,
			"count":84,
			"type":"SCALAR"
		},
		{
			"bufferView":49,
			"componentType":5126,
			"count":480,
			"max":[
				8
			],
			"min":[
				0.016666666666666666
			],
			"type":"SCALAR"
		},
		{
			"bufferView":50,
			"componentType":5126,
			"count":480,
			"type":"VEC3"
		},
		{
			"bufferView":51,
			"componentType":5126,
			"count":480,
			"type":"VEC4"
		}
	],
	"bufferViews":[
		{
			"buffer":0,
			"byteLength":48,
			"byteOffset":0,
			"target":34962
		},
		{
			"buffer":0,
			"byteLength":48,
			"byteOffset":48,
			"target":34962
		},
		{
			"buffer":0,
			"byteLength":32,
			"byteOffset":96,
			"target":34962
		},
		{
			"buffer":0,
			"byteLength":12,
			"byteOffset":128,
			"target":34963
		},
		{
			"buffer":0,
			"byteLength":48,
			"byteOffset":140,
			"target":34962
		},
		{
			"buffer":0,
			"byteLength":48,
			"byteOffset":188,
			"target":34962
		},
		{
			"buffer":0,
			"byteLength":32,
			"byteOffset":236,
			"target":34962
		},
		{
			"buffer":0,
			"byteLength":15408,
			"byteOffset":268,
			"target":34962
		},
		{
			"buffer":0,
			"byteLength":15408,
			"byteOffset":15676,
			"target":34962
		},
		{
			"buffer":0,
			"byteLength":10272,
			"byteOffset":31084,
			"target":34962
		},
		{
			"buffer":0,
			"byteLength":10752,
			"byteOffset":41356,
			"target":34963
		},
		{
			"buffer":0,
			"byteLength":2892,
			"byteOffset":52108,
			"target":34962
		},
		{
			"buffer":0,
			"byteLength":2892,
			"byteOffset":55000,
			"target":34962
		},
		{
			"buffer":0,
			"byteLength":1928,
			"byteOffset":57892,
			"target":34962
		},
		{
			"buffer":0,
			"byteLength":2016,
			"byteOffset":59820,
			"target":34963
		},
		{
			"buffer":0,
			"byteLength":288,
			"byteOffset":61836,
			"target":34962
		},
		{
			"buffer":0,
			"byteLength":288,
			"byteOffset":62124,
			"target":34962
		},
		{
			"buffer":0,
			"byteLength":192,
			"byteOffset":62412,
			"target":34962
		},
		{
			"buffer":0,
			"byteLength":72,
			"byteOffset":62604,
			"target":34963
		},
		{
			"buffer":0,
			"byteLength":1920,
			"byteOffset":62676,
			"target":34962
		},
		{
			"buffer":0,
			"byteLength":1920,
			"byteOffset":64596,
			"target":34962
		},
		{
			"buffer":0,
			"byteLength":1280,
			"byteOffset":66516,
			"target":34962
		},
		{
			"buffer":0,
			"byteLength":504,
			"byteOffset":67796,
			"target":34963
		},
		{
			"buffer":0,
			"byteLength":288,
			"byteOffset":68300,
			"target":34962
		},
		{
			"buffer":0,
			"byteLength":288,
			"byteOffset":68588,
			"target":34962
		},
		{
			"buffer":0,
			"byteLength":192,
			"byteOffset":68876,
			"target":34962
		},
		{
			"buffer":0,
			"byteLength":29184,
			"byteOffset":69068,
			"target":34962
		},
		{
			"buffer":0,
			"byteLength":29184,
			"byteOffset":98252,
			"target":34962
		},
		{
			"buffer":0,
			"byteLength":20736,
			"byteOffset":127436,
			"target":34963
		},
		{
			"buffer":0,
			"byteLength":21600,
			"byteOffset":148172,
			"target":34962
		},
		{
			"buffer":0,
			"byteLength":21600,
			"byteOffset":169772,
			"target":34962
		},
		{
			"buffer":0,
			"byteLength":12864,
			"byteOffset":191372,
			"target":34963
		},
		{
			"buffer":0,
			"byteLength":1200,
			"byteOffset":204236,
			"target":34962
		},
		{
			"buffer":0,
			"byteLength":1200,
			"byteOffset":205436,
			"target":34962
		},
		{
			"buffer":0,
			"byteLength":800,
			"byteOffset":206636,
			"target":34962
		},
		{
			"buffer":0,
			"byteLength":504,
			"byteOffset":207436,
			"target":34963
		},
		{
			"buffer":0,
			"byteLength":20160,
			"byteOffset":207940,
			"target":34962
		},
		{
			"buffer":0,
			"byteLength":20160,
			"byteOffset":228100,
			"target":34962
		},
		{
			"buffer":0,
			"byteLength":6912,
			"byteOffset":248260,
			"target":34963
		},
		{
			"buffer":0,
			"byteLength":20160,
			"byteOffset":255172,
			"target":34962
		},
		{
			"buffer":0,
			"byteLength":20160,
			"byteOffset":275332,
			"target":34962
		},
		{
			"buffer":0,
			"byteLength":288,
			"byteOffset":295492,
			"target":34962
		},
		{
			"buffer":0,
			"byteLength":288,
			"byteOffset":295780,
			"target":34962
		},
		{
			"buffer":0,
			"byteLength":192,
			"byteOffset":296068,
			"target":34962
		},
		{
			"buffer":0,
			"byteLength":72,
			"byteOffset":296260,
			"target":34963
		},
		{
			"buffer":0,
			"byteLength":480,
			"byteOffset":296332,
			"target":34962
		},
		{
			"buffer":0,
			"byteLength":480,
			"byteOffset":296812,
			"target":34962
		},
		{
			"buffer":0,
			"byteLength":320,
			"byteOffset":297292,
			"target":34962
		},
		{
			"buffer":0,
			"byteLength":168,
			"byteOffset":297612,
			"target":34963
		},
		{
			"buffer":0,
			"byteLength":1920,
			"byteOffset":297780
		},
		{
			"buffer":0,
			"byteLength":5760,
			"byteOffset":299700
		},
		{
			"buffer":0,
			"byteLength":7680,
			"byteOffset":305460
		}
	],
	"samplers":[
		{
			"magFilter":9729,
			"minFilter":9987,
			"wrapS":33071,
			"wrapT":33071
		}
	],
	"buffers":[
		{
			"byteLength":313140,
			"uri":"seashore.bin"
		}
	]
}
