{
	"asset":{
		"generator":"Khronos glTF Blender I/O v5.1.19",
		"version":"2.0"
	},
	"scene":0,
	"scenes":[
		{
			"name":"barrel",
			"nodes":[
				1
			]
		}
	],
	"nodes":[
		{
			"mesh":0,
			"name":"Nozzle",
			"translation":[
				0,
				0.4982038736343384,
				-0.2407221496105194
			]
		},
		{
			"children":[
				0
			],
			"mesh":1,
			"name":"BarrelBody"
		}
	],
	"materials":[
		{
			"doubleSided":true,
			"name":"Material",
			"normalTexture":{
				"index":0
			},
			"pbrMetallicRoughness":{
				"baseColorTexture":{
					"index":1
				},
				"metallicRoughnessTexture":{
					"index":2
				}
			}
		}
	],
	"meshes":[
		{
			"name":"Cylinder.002",
			"primitives":[
				{
					"attributes":{
						"POSITION":0,
						"NORMAL":1,
						"TEXCOORD_0":2
					},
					"indices":3,
					"material":0
				}
			]
		},
		{
			"name":"Cylinder.001",
			"primitives":[
				{
					"attributes":{
						"POSITION":4,
						"NORMAL":5,
						"TEXCOORD_0":6
					},
					"indices":7,
					"material":0
				}
			]
		}
	],
	"textures":[
		{
			"sampler":0,
			"source":0
		},
		{
			"sampler":0,
			"source":1
		},
		{
			"sampler":0,
			"source":2
		}
	],
	"images":[
		{
			"mimeType":"image/png",
			"name":"Material_Normal.png.001",
			"uri":"../../../../textures/environment/artificial/barrel/Material_Normal.png"
		},
		{
			"mimeType":"image/png",
			"name":"Material_BaseColor.png.001",
			"uri":"../../../../textures/environment/artificial/barrel/Material_BaseColor.png"
		},
		{
			"mimeType":"image/png",
			"name":"Material_Roughness.png.001",
			"uri":"../../../../textures/environment/artificial/barrel/Material_Roughness.png"
		}
	],
	"accessors":[
		{
			"bufferView":0,
			"componentType":5126,
			"count":96,
			"max":[
				0.06300926208496094,
				0.04417133331298828,
				0.072756826877594
			],
			"min":[
				-0.06300926208496094,
				-0.04417133331298828,
				-0.072756826877594
			],
			"type":"VEC3"
		},
		{
			"bufferView":1,
			"componentType":5126,
			"count":96,
			"type":"VEC3"
		},
		{
			"bufferView":2,
			"componentType":5126,
			"count":96,
			"type":"VEC2"
		},
		{
			"bufferView":3,
			"componentType":5123,
			"count":180,
			"type":"SCALAR"
		},
		{
			"bufferView":4,
			"componentType":5126,
			"count":1120,
			"max":[
				0.46002569794654846,
				0.5308575630187988,
				0.46002569794654846
			],
			"min":[
				-0.46002569794654846,
				-0.5308575630187988,
				-0.46002569794654846
			],
			"type":"VEC3"
		},
		{
			"bufferView":5,
			"componentType":5126,
			"count":1120,
			"type":"VEC3"
		},
		{
			"bufferView":6,
			"componentType":5126,
			"count":1120,
			"type":"VEC2"
		},
		{
			"bufferView":7,
			"componentType":5123,
			"count":4788,
			"type":"SCALAR"
		}
	],
	"bufferViews":[
		{
			"buffer":0,
			"byteLength":1152,
			"byteOffset":0,
			"target":34962
		},
		{
			"buffer":0,
			"byteLength":1152,
			"byteOffset":1152,
			"target":34962
		},
		{
			"buffer":0,
			"byteLength":768,
			"byteOffset":2304,
			"target":34962
		},
		{
			"buffer":0,
			"byteLength":360,
			"byteOffset":3072,
			"target":34963
		},
		{
			"buffer":0,
			"byteLength":13440,
			"byteOffset":3432,
			"target":34962
		},
		{
			"buffer":0,
			"byteLength":13440,
			"byteOffset":16872,
			"target":34962
		},
		{
			"buffer":0,
			"byteLength":8960,
			"byteOffset":30312,
			"target":34962
		},
		{
			"buffer":0,
			"byteLength":9576,
			"byteOffset":39272,
			"target":34963
		}
	],
	"samplers":[
		{
			"magFilter":9729,
			"minFilter":9987
		}
	],
	"buffers":[
		{
			"byteLength":48848,
			"uri":"barrel.bin"
		}
	]
}
