{
	"asset":{
		"generator":"Khronos glTF Blender I/O v5.1.19",
		"version":"2.0"
	},
	"scene":0,
	"scenes":[
		{
			"name":"crunchy_oil",
			"nodes":[
				0
			]
		}
	],
	"nodes":[
		{
			"mesh":0,
			"name":"CrunchyOil",
			"scale":[
				2,
				2,
				2
			]
		}
	],
	"materials":[
		{
			"doubleSided":true,
			"name":"CrunchyOil",
			"normalTexture":{
				"index":0
			},
			"pbrMetallicRoughness":{
				"baseColorTexture":{
					"index":1
				},
				"metallicRoughnessTexture":{
					"index":2
				}
			}
		}
	],
	"meshes":[
		{
			"name":"Cylinder.001",
			"primitives":[
				{
					"attributes":{
						"POSITION":0,
						"NORMAL":1,
						"TEXCOORD_0":2
					},
					"indices":3,
					"material":0
				}
			]
		}
	],
	"textures":[
		{
			"sampler":0,
			"source":0
		},
		{
			"sampler":0,
			"source":1
		},
		{
			"sampler":0,
			"source":2
		}
	],
	"images":[
		{
			"mimeType":"image/png",
			"name":"Material_Normal.png",
			"uri":"../../../../textures/environment/artificial/crunchy_oil/Material_Normal.png"
		},
		{
			"mimeType":"image/png",
			"name":"Material_BaseColor.png",
			"uri":"../../../../textures/environment/artificial/crunchy_oil/Material_BaseColor.png"
		},
		{
			"mimeType":"image/png",
			"name":"Material_Roughness.png",
			"uri":"../../../../textures/environment/artificial/crunchy_oil/Material_Roughness.png"
		}
	],
	"accessors":[
		{
			"bufferView":0,
			"componentType":5126,
			"count":1216,
			"max":[
				0.23001284897327423,
				0.26830819249153137,
				0.23001284897327423
			],
			"min":[
				-0.23001284897327423,
				-0.26830819249153137,
				-0.23001284897327423
			],
			"type":"VEC3"
		},
		{
			"bufferView":1,
			"componentType":5126,
			"count":1216,
			"type":"VEC3"
		},
		{
			"bufferView":2,
			"componentType":5126,
			"count":1216,
			"type":"VEC2"
		},
		{
			"bufferView":3,
			"componentType":5123,
			"count":4968,
			"type":"SCALAR"
		}
	],
	"bufferViews":[
		{
			"buffer":0,
			"byteLength":14592,
			"byteOffset":0,
			"target":34962
		},
		{
			"buffer":0,
			"byteLength":14592,
			"byteOffset":14592,
			"target":34962
		},
		{
			"buffer":0,
			"byteLength":9728,
			"byteOffset":29184,
			"target":34962
		},
		{
			"buffer":0,
			"byteLength":9936,
			"byteOffset":38912,
			"target":34963
		}
	],
	"samplers":[
		{
			"magFilter":9729,
			"minFilter":9987
		}
	],
	"buffers":[
		{
			"byteLength":48848,
			"uri":"crunchy_oil.bin"
		}
	]
}
