{
	"asset":{
		"generator":"Khronos glTF Blender I/O v5.1.19",
		"version":"2.0"
	},
	"scene":0,
	"scenes":[
		{
			"name":"axle_01",
			"nodes":[
				0
			]
		}
	],
	"nodes":[
		{
			"mesh":0,
			"name":"Axle01"
		}
	],
	"materials":[
		{
			"doubleSided":true,
			"name":"Axle01",
			"normalTexture":{
				"index":0
			},
			"pbrMetallicRoughness":{
				"baseColorFactor":[
					0.8004660606384277,
					0.3514302372932434,
					0.15905949473381042,
					1
				],
				"roughnessFactor":0.5
			}
		}
	],
	"meshes":[
		{
			"name":"Cylinder.001",
			"primitives":[
				{
					"attributes":{
						"POSITION":0,
						"NORMAL":1,
						"TEXCOORD_0":2
					},
					"indices":3,
					"material":0
				}
			]
		}
	],
	"textures":[
		{
			"sampler":0,
			"source":0
		}
	],
	"images":[
		{
			"mimeType":"image/png",
			"name":"axle_01_normal",
			"uri":"../../../textures/environment/gears/axle_01_normal.png"
		}
	],
	"accessors":[
		{
			"bufferView":0,
			"componentType":5126,
			"count":258,
			"max":[
				0.699999988079071,
				1,
				0.699999988079071
			],
			"min":[
				-0.699999988079071,
				-1,
				-0.699999988079071
			],
			"type":"VEC3"
		},
		{
			"bufferView":1,
			"componentType":5126,
			"count":258,
			"type":"VEC3"
		},
		{
			"bufferView":2,
			"componentType":5126,
			"count":258,
			"type":"VEC2"
		},
		{
			"bufferView":3,
			"componentType":5123,
			"count":756,
			"type":"SCALAR"
		}
	],
	"bufferViews":[
		{
			"buffer":0,
			"byteLength":3096,
			"byteOffset":0,
			"target":34962
		},
		{
			"buffer":0,
			"byteLength":3096,
			"byteOffset":3096,
			"target":34962
		},
		{
			"buffer":0,
			"byteLength":2064,
			"byteOffset":6192,
			"target":34962
		},
		{
			"buffer":0,
			"byteLength":1512,
			"byteOffset":8256,
			"target":34963
		}
	],
	"samplers":[
		{
			"magFilter":9729,
			"minFilter":9987
		}
	],
	"buffers":[
		{
			"byteLength":9768,
			"uri":"axle_01.bin"
		}
	]
}
