{
	"asset":{
		"generator":"Khronos glTF Blender I/O v5.1.19",
		"version":"2.0"
	},
	"scene":0,
	"scenes":[
		{
			"name":"gear_02",
			"nodes":[
				0
			]
		}
	],
	"nodes":[
		{
			"mesh":0,
			"name":"Gear02"
		}
	],
	"materials":[
		{
			"doubleSided":true,
			"name":"Rainbow Metal ",
			"normalTexture":{
				"index":0
			},
			"pbrMetallicRoughness":{
				"baseColorFactor":[
					0.8000229597091675,
					0.2354682981967926,
					0.07879241555929184,
					1
				],
				"roughnessFactor":0.5
			}
		}
	],
	"meshes":[
		{
			"name":"Gear.004",
			"primitives":[
				{
					"attributes":{
						"POSITION":0,
						"NORMAL":1,
						"TEXCOORD_0":2
					},
					"indices":3,
					"material":0
				}
			]
		}
	],
	"textures":[
		{
			"sampler":0,
			"source":0
		}
	],
	"images":[
		{
			"mimeType":"image/png",
			"name":"gear_02_normal",
			"uri":"../../../textures/environment/gears/gear_02_normal.png"
		}
	],
	"accessors":[
		{
			"bufferView":0,
			"componentType":5126,
			"count":1072,
			"max":[
				2.2116518020629883,
				0.5,
				2.2116518020629883
			],
			"min":[
				-2.2116518020629883,
				-0.5,
				-2.2116518020629883
			],
			"type":"VEC3"
		},
		{
			"bufferView":1,
			"componentType":5126,
			"count":1072,
			"type":"VEC3"
		},
		{
			"bufferView":2,
			"componentType":5126,
			"count":1072,
			"type":"VEC2"
		},
		{
			"bufferView":3,
			"componentType":5123,
			"count":2304,
			"type":"SCALAR"
		}
	],
	"bufferViews":[
		{
			"buffer":0,
			"byteLength":12864,
			"byteOffset":0,
			"target":34962
		},
		{
			"buffer":0,
			"byteLength":12864,
			"byteOffset":12864,
			"target":34962
		},
		{
			"buffer":0,
			"byteLength":8576,
			"byteOffset":25728,
			"target":34962
		},
		{
			"buffer":0,
			"byteLength":4608,
			"byteOffset":34304,
			"target":34963
		}
	],
	"samplers":[
		{
			"magFilter":9729,
			"minFilter":9987
		}
	],
	"buffers":[
		{
			"byteLength":38912,
			"uri":"gear_02.bin"
		}
	]
}
