{
	"asset":{
		"generator":"Khronos glTF Blender I/O v5.1.19",
		"version":"2.0"
	},
	"scene":0,
	"scenes":[
		{
			"name":"first_rock",
			"nodes":[
				0
			]
		}
	],
	"nodes":[
		{
			"mesh":0,
			"name":"FirstRock"
		}
	],
	"materials":[
		{
			"doubleSided":true,
			"name":"first_rock_texture",
			"normalTexture":{
				"index":0
			},
			"pbrMetallicRoughness":{
				"baseColorTexture":{
					"index":1
				},
				"metallicRoughnessTexture":{
					"index":2
				}
			}
		}
	],
	"meshes":[
		{
			"name":"Cube.018",
			"primitives":[
				{
					"attributes":{
						"POSITION":0,
						"NORMAL":1,
						"TEXCOORD_0":2
					},
					"indices":3,
					"material":0
				}
			]
		}
	],
	"textures":[
		{
			"sampler":0,
			"source":0
		},
		{
			"sampler":0,
			"source":1
		},
		{
			"sampler":0,
			"source":2
		}
	],
	"images":[
		{
			"mimeType":"image/png",
			"name":"DefaultMaterial_Normal.png.003",
			"uri":"../../../../textures/environment/rocks/first_rock/DefaultMaterial_Normal.png"
		},
		{
			"mimeType":"image/png",
			"name":"DefaultMaterial_BaseColor.png.002",
			"uri":"../../../../textures/environment/rocks/first_rock/DefaultMaterial_BaseColor.png"
		},
		{
			"mimeType":"image/png",
			"name":"DefaultMaterial_Roughness.png.002",
			"uri":"../../../../textures/environment/rocks/first_rock/DefaultMaterial_Roughness.png"
		}
	],
	"accessors":[
		{
			"bufferView":0,
			"componentType":5126,
			"count":3955,
			"max":[
				0.9999825954437256,
				2.917658805847168,
				1.0010813474655151
			],
			"min":[
				-0.9987257719039917,
				-0.0006038080900907516,
				-1.0350258350372314
			],
			"type":"VEC3"
		},
		{
			"bufferView":1,
			"componentType":5126,
			"count":3955,
			"type":"VEC3"
		},
		{
			"bufferView":2,
			"componentType":5126,
			"count":3955,
			"type":"VEC2"
		},
		{
			"bufferView":3,
			"componentType":5123,
			"count":3963,
			"type":"SCALAR"
		}
	],
	"bufferViews":[
		{
			"buffer":0,
			"byteLength":47460,
			"byteOffset":0,
			"target":34962
		},
		{
			"buffer":0,
			"byteLength":47460,
			"byteOffset":47460,
			"target":34962
		},
		{
			"buffer":0,
			"byteLength":31640,
			"byteOffset":94920,
			"target":34962
		},
		{
			"buffer":0,
			"byteLength":7926,
			"byteOffset":126560,
			"target":34963
		}
	],
	"samplers":[
		{
			"magFilter":9729,
			"minFilter":9987
		}
	],
	"buffers":[
		{
			"byteLength":134488,
			"uri":"first_rock.bin"
		}
	]
}
